# xmcd
#
# Track frame offsets:
# 150
# 55644
# 134907
# 219467
#
# Disc length: 3672 seconds
#
#
# Revision: 1
# Processed by: cddbd v1.5.2PL0 Copyright (c) Steve Scherf et al.
# Submitted via: FreeRIP 2.941 
#
DISCID=3a0e5604
DTITLE=Garrison Keillor - Garrison Keillor - 2003 - Home On The Prairie (Stories From Lake Wobegon) Disc 4
DYEAR=2003
DGENRE=Comedy
TTITLE0=Garrison Keillor - Lake Cabin
TTITLE1=Garrison Keillor - Backyard Wedding
TTITLE2=Garrison Keillor - Blue Boat
TTITLE3=Garrison Keillor - Jimmy, Our Bus Driver
EXTD=Home on the Prairie by Garrison Keillor \nStories from Lake Wobegon\nfolk country HighBridgeaudio.com
EXTT0=
EXTT1=
EXTT2=
EXTT3=
PLAYORDER=
